<svg width="30" height="30" viewBox="0 0 30 30" fill="none" xmlns="http://www.w3.org/2000/svg">
<path d="M15 3C8.372 3 3 8.372 3 15C3 18.9281 4.89563 22.4047 7.8125 24.5938C7.81221 24.5939 7.80078 24.5996 7.80078 24.5996C7.81681 24.6086 7.85229 24.6273 7.86914 24.6367C9.86415 26.1156 12.3256 27 15 27C21.628 27 27 21.628 27 15C27 8.372 21.628 3 15 3ZM17.3926 5.30078C21.3425 6.27574 24.3699 9.59642 24.9062 13.6992C24.8126 13.7625 24.7103 13.8008 24.5996 13.8008C22.5936 13.8008 21.3553 7.76687 17.3926 5.30078ZM10.4023 6.12891C13.7594 6.27801 16.2576 10.515 18.6016 12.5996C20.4666 14.2569 22.9264 15.7217 24.9082 16.2891C24.8211 16.9618 24.6656 17.6121 24.4512 18.2363C22.1817 17.8145 19.767 16.5609 17.4004 15C13.6514 12.529 10.2378 10.1992 7.80078 10.1992C7.13235 10.1992 6.55307 10.3485 6.05469 10.5586C7.0003 8.66231 8.52478 7.10618 10.4023 6.12891ZM6.59961 18.5996C8.63261 18.5996 11.7138 22.1992 19.8008 22.1992C20.6444 22.1992 21.4326 22.0953 22.1562 21.9707C20.9791 23.1789 19.5019 24.0891 17.8438 24.582C17.6938 24.5866 17.5557 24.5996 17.4004 24.5996C13.9964 24.5996 13.0344 23.4004 11.4004 23.4004C10.9376 23.4004 10.4575 23.5049 9.99414 23.6426C8.09598 22.5387 6.58979 20.8349 5.74805 18.7852C5.9914 18.6777 6.26731 18.5996 6.59961 18.5996Z" fill="#1BD3F4"/>
</svg>
