<svg width="24" height="24" viewBox="0 0 24 24" fill="none" xmlns="http://www.w3.org/2000/svg">
<path opacity="0.7" d="M18 11C18 15.418 15.314 20 12 20C8.686 20 6 15.418 6 11C6 6.582 8.686 4 12 4C15.314 4 18 6.582 18 11Z" fill="#1BD3F4"/>
<path d="M2.209 6.914C2.508 8.439 3.235 10.412 5 11L6 7L3.637 5.819C2.89 5.445 2.048 6.095 2.209 6.914Z" fill="#1BD3F4"/>
<path d="M21.791 6.914C21.492 8.439 20.765 10.412 19 11L18 7L20.363 5.819C21.11 5.445 21.952 6.095 21.791 6.914Z" fill="#1BD3F4"/>
<path d="M15.5 12C16.3284 12 17 11.3284 17 10.5C17 9.67157 16.3284 9 15.5 9C14.6716 9 14 9.67157 14 10.5C14 11.3284 14.6716 12 15.5 12Z" fill="black"/>
<path d="M11.046 12.988C11.64 12.994 12.382 12.997 12.973 12.998C13.352 12.999 13.541 13.458 13.273 13.726L12.304 14.695C12.136 14.863 11.864 14.861 11.698 14.692L10.738 13.713C10.473 13.442 10.667 12.985 11.046 12.988Z" fill="black"/>
<path opacity="0.35" d="M11.467 1.017C7.215 1.293 4 5.013 4 9.274V21C4 22.105 4.895 23 6 23H7C8.105 23 9 22.105 9 21V18.665C7.208 16.985 6 13.959 6 11C6 8.749 6.7 6.978 7.822 5.779C7.954 6.276 7.999 6.775 8 7.003C8.001 7.554 8.449 8 9 8C9.552 8 10 7.552 10 7C10 6.824 9.973 5.66 9.51 4.549C9.978 4.329 10.477 4.175 11 4.088V8C11 8.553 11.448 9 12 9C12.552 9 13 8.553 13 8V4.088C13.523 4.175 14.022 4.329 14.49 4.549C14.027 5.66 14 6.824 14 7C14 7.551 14.446 7.997 14.997 7.999C14.998 7.999 14.999 7.999 15 7.999C15.55 7.999 15.997 7.553 16 7.003C16.001 6.775 16.046 6.276 16.178 5.779C17.3 6.978 18 8.749 18 11C18 13.959 16.792 16.985 15 18.665V21C15 22.105 15.895 23 17 23H18C19.105 23 20 22.105 20 21V9C20 4.405 16.127 0.715999 11.467 1.017Z" fill="#1BD3F4"/>
<path d="M8.5 12C9.32843 12 10 11.3284 10 10.5C10 9.67157 9.32843 9 8.5 9C7.67157 9 7 9.67157 7 10.5C7 11.3284 7.67157 12 8.5 12Z" fill="black"/>
</svg>
